<?xml version="1.0" encoding="UTF-8"?>
<svg id="Layer_2" data-name="Layer 2" xmlns="http://www.w3.org/2000/svg" viewBox="0 0 1531.3 775.61">
  <defs>
    <style>
      .cls-1 {
        fill: #fff;
      }
    </style>
  </defs>
  <g id="Layer_1-2" data-name="Layer 1">
    <g>
      <g>
        <path class="cls-1" d="M53.11,775.61c-7.62,0-14.85-1.45-21.69-4.34-6.84-2.89-12.45-6.67-16.82-11.32l-2.96,13.97h-7.19l-4.44-46.97,8.46-.85c2.25,6.91,4.9,12.8,7.93,17.67,3.03,4.87,6.42,8.82,10.16,11.85,3.74,3.03,7.79,5.29,12.17,6.77,4.37,1.48,8.96,2.22,13.75,2.22,5.64,0,10.72-.99,15.24-2.96,4.51-1.97,8.11-5.04,10.79-9.2,2.68-4.16,4.02-9.63,4.02-16.4,0-4.94-.95-9.31-2.86-13.12-1.9-3.81-5.29-7.33-10.16-10.58-4.87-3.24-11.89-6.35-21.05-9.31-8.18-2.68-15.02-5.43-20.52-8.25-5.5-2.82-9.91-5.92-13.22-9.31-3.32-3.39-5.68-7.16-7.09-11.32-1.41-4.16-2.12-8.92-2.12-14.28,0-4.79.7-9.2,2.12-13.22,1.41-4.02,3.42-7.58,6.03-10.69,2.61-3.1,5.71-5.75,9.31-7.94,3.6-2.19,7.55-3.81,11.85-4.87,4.3-1.06,8.78-1.59,13.44-1.59,5.78,0,11.39,1.06,16.82,3.17,5.43,2.12,10.33,5.01,14.71,8.68l2.75-11.85h7.41l4.66,41.9-8.89,1.06c-2.54-7.76-5.57-14.03-9.1-18.83-3.53-4.79-7.62-8.28-12.27-10.47-4.66-2.19-10.02-3.28-16.08-3.28-8.04,0-14.57,2.15-19.57,6.45-5.01,4.3-7.51,10.26-7.51,17.88,0,4.8.95,9.07,2.86,12.8,1.9,3.74,5.32,7.13,10.26,10.16,4.94,3.03,11.85,6.1,20.74,9.2,8.46,2.68,15.48,5.61,21.05,8.78,5.57,3.17,9.95,6.56,13.12,10.16,3.17,3.6,5.43,7.48,6.77,11.64,1.34,4.16,2.01,8.71,2.01,13.65,0,6.35-1.06,12.13-3.17,17.35-2.12,5.22-5.15,9.77-9.1,13.65-3.95,3.88-8.68,6.84-14.18,8.89-5.5,2.04-11.64,3.07-18.41,3.07Z"/>
        <path class="cls-1" d="M191.49,772.64v-7.62l16.93-2.75c2.4-.28,4.16-1.09,5.29-2.43,1.13-1.34,1.69-3.98,1.69-7.93v-117.43h-14.81c-5.08,0-9.31.39-12.7,1.16-3.39.78-6.28,2.33-8.68,4.66-2.4,2.33-4.59,5.71-6.56,10.16-1.98,4.44-4.16,10.34-6.56,17.67l-8.68-2.12,8.46-41.47h115.32l8.04,41.47-8.68,2.12c-2.26-7.33-4.41-13.22-6.45-17.67-2.05-4.44-4.23-7.83-6.56-10.16-2.33-2.33-5.19-3.88-8.57-4.66-3.39-.77-7.62-1.16-12.7-1.16h-15.23v118.28c0,3.53.46,5.89,1.37,7.09.92,1.2,2.86,2.01,5.82,2.43l16.93,2.75v7.62h-63.69Z"/>
        <path class="cls-1" d="M465.08,775.61c-4.37,0-8.22-.74-11.53-2.22-3.31-1.48-6.24-3.91-8.78-7.3-2.54-3.39-4.94-7.9-7.19-13.54l-11.21-28.35c-2.12-5.5-4.34-9.66-6.67-12.48-2.33-2.82-5.01-4.76-8.04-5.82-3.03-1.06-6.88-1.59-11.53-1.59-2.54,0-4.8.07-6.77.21-1.98.14-3.81.35-5.5.63v47.61c0,3.39.53,5.89,1.59,7.51,1.06,1.62,3.07,2.58,6.03,2.86l15.87,1.69v7.83h-57.98v-7.83l12.49-1.9c2.54-.28,4.26-1.13,5.18-2.54.91-1.41,1.37-4.16,1.37-8.25v-107.7c0-3.67-.5-6.14-1.48-7.41-.99-1.27-2.89-2.12-5.71-2.54l-11.85-1.9v-8.04h48.24c9.45,0,17.7.78,24.76,2.33,7.05,1.55,12.87,3.95,17.46,7.19,4.58,3.25,8.01,7.27,10.26,12.06,2.25,4.8,3.39,10.44,3.39,16.93,0,3.1-.46,6.24-1.38,9.42-.92,3.17-2.29,6.28-4.13,9.31-1.83,3.03-4.16,5.82-6.98,8.36-2.82,2.54-6.07,4.73-9.73,6.56-3.67,1.83-7.83,3.1-12.48,3.81v.63c5.08,1.55,9.13,3.88,12.17,6.98,3.03,3.1,5.61,7.34,7.72,12.7l7.19,17.77c2.26,5.36,4.26,9.95,6.03,13.75,1.76,3.81,3.81,6.7,6.14,8.68,2.33,1.98,5.32,2.96,8.99,2.96,1.97,0,3.84-.21,5.61-.63,1.76-.42,3.56-.92,5.4-1.48l1.69,6.35c-2.4,2.26-5.18,4.06-8.36,5.4-3.17,1.34-6.6,2.01-10.26,2.01ZM402.24,695.2c7.48,0,14.11-1.16,19.89-3.49,5.78-2.33,10.37-5.85,13.75-10.58,3.39-4.72,5.08-10.61,5.08-17.67s-1.55-12.7-4.66-16.93c-3.1-4.23-7.62-7.3-13.54-9.2-5.93-1.9-13.19-2.86-21.79-2.86h-13.12v60.3c3.67.14,6.63.25,8.89.32,2.26.07,4.09.11,5.5.11Z"/>
        <path class="cls-1" d="M574.9,723.34l-9.73,28.57c-1.13,3.1-1.45,5.64-.95,7.62.49,1.98,2.43,3.17,5.82,3.6l12.06,1.69v7.83h-48.67v-7.83l9.52-1.69c2.54-.56,4.44-1.48,5.71-2.75,1.27-1.27,2.68-4.16,4.23-8.68l45.07-127.17h15.45l44.43,127.59c1.27,3.53,2.4,6.03,3.39,7.51.99,1.48,2.96,2.51,5.93,3.07l8.25,1.69v8.25h-50.36v-7.83l12.27-1.69c2.82-.42,4.55-1.38,5.18-2.86.63-1.48.32-3.98-.95-7.51l-10.16-29.41-3.39-10.16-24.12-72.58h-.63l-24.76,72.58-3.6,10.16Z"/>
        <path class="cls-1" d="M743.33,772.64v-7.62l16.93-2.75c2.4-.28,4.16-1.09,5.29-2.43,1.13-1.34,1.69-3.98,1.69-7.93v-117.43h-14.81c-5.08,0-9.31.39-12.7,1.16-3.39.78-6.28,2.33-8.68,4.66-2.4,2.33-4.59,5.71-6.56,10.16-1.98,4.44-4.16,10.34-6.56,17.67l-8.68-2.12,8.46-41.47h115.32l8.04,41.47-8.68,2.12c-2.26-7.33-4.41-13.22-6.45-17.67-2.05-4.44-4.23-7.83-6.56-10.16-2.33-2.33-5.19-3.88-8.57-4.66-3.39-.77-7.62-1.16-12.7-1.16h-15.23v118.28c0,3.53.46,5.89,1.37,7.09.92,1.2,2.86,2.01,5.82,2.43l16.93,2.75v7.62h-63.69Z"/>
        <path class="cls-1" d="M905.2,772.64v-7.83l12.27-1.9c2.68-.42,4.44-1.34,5.29-2.75.85-1.41,1.27-4.09,1.27-8.04v-107.7c0-3.52-.42-5.96-1.27-7.3-.85-1.34-2.82-2.22-5.93-2.65l-11.64-1.9v-8.04h94.16l7.62,33.43-8.68,2.75c-1.98-5.92-3.91-10.65-5.82-14.18-1.9-3.52-4.02-6.17-6.35-7.93-2.33-1.76-5.18-2.93-8.57-3.49-3.39-.56-7.62-.85-12.7-.85h-25.39v57.77h24.33c4.79,0,8.36-.32,10.68-.95,2.33-.63,4.02-2.19,5.08-4.66,1.06-2.47,2.15-6.38,3.28-11.74l7.62-.85v45.28l-7.62,1.27c-.85-5.5-1.84-9.49-2.96-11.95-1.13-2.47-3.03-4.05-5.71-4.76-2.68-.7-6.7-1.06-12.06-1.06h-22.64v60.3h33.22c5.08,0,9.24-.42,12.49-1.27,3.24-.85,5.96-2.25,8.14-4.23,2.19-1.97,3.98-4.76,5.4-8.36,1.41-3.6,2.68-8.22,3.81-13.86h9.1l-5.08,37.45h-101.35Z"/>
        <path class="cls-1" d="M1143.24,775.61c-13.12,0-24.58-3-34.38-8.99-9.81-5.99-17.46-14.63-22.96-25.92-5.5-11.28-8.25-24.83-8.25-40.63,0-12.41,1.55-23.49,4.66-33.22,3.1-9.73,7.54-17.95,13.33-24.65,5.78-6.7,12.7-11.81,20.74-15.34,8.04-3.52,16.93-5.29,26.66-5.29,7.48,0,14.35,1.16,20.63,3.49,6.27,2.33,11.67,5.61,16.19,9.84l2.12-13.54h7.62l8.68,47.61-8.46,2.12c-3.25-9.17-7.02-16.54-11.32-22.11-4.3-5.57-9.31-9.63-15.02-12.17-5.71-2.54-12.52-3.81-20.42-3.81-7.06,0-13.54,1.27-19.47,3.81-5.93,2.54-11.08,6.49-15.45,11.85-4.37,5.36-7.8,12.13-10.26,20.31-2.47,8.18-3.7,17.92-3.7,29.2,0,10.16,1.13,19.29,3.39,27.4,2.26,8.11,5.57,15.02,9.95,20.74,4.37,5.71,9.66,10.09,15.87,13.12,6.21,3.03,13.26,4.55,21.16,4.55,5.22,0,10.19-.67,14.92-2.01,4.72-1.34,9.03-3.14,12.91-5.4,3.88-2.26,7.01-4.72,9.41-7.41v-27.08c0-3.52-.5-5.89-1.48-7.09-.99-1.2-2.89-2.01-5.71-2.43l-12.91-1.9v-8.04h53.32v8.04l-11.85,1.9c-2.54.28-4.23,1.16-5.08,2.65-.85,1.48-1.27,4.06-1.27,7.72v50.36h-7.41l-4.23-11.43c-4.09,2.96-8.36,5.47-12.8,7.51-4.44,2.05-9.07,3.6-13.86,4.66-4.8,1.06-9.88,1.59-15.24,1.59Z"/>
        <path class="cls-1" d="M1276.97,772.64v-7.83l12.7-1.9c2.68-.42,4.44-1.34,5.29-2.75.85-1.41,1.27-4.09,1.27-8.04v-107.7c0-3.67-.46-6.14-1.38-7.41-.92-1.27-2.79-2.12-5.61-2.54l-12.27-1.9v-8.04h53.96v8.04l-12.91,1.9c-2.54.28-4.23,1.2-5.08,2.75-.85,1.55-1.27,4.23-1.27,8.04v107.7c0,3.53.46,5.96,1.38,7.3.91,1.34,2.71,2.22,5.39,2.65l12.49,1.9v7.83h-53.96Z"/>
        <path class="cls-1" d="M1430.8,723.34l-9.73,28.57c-1.13,3.1-1.45,5.64-.95,7.62.49,1.98,2.43,3.17,5.82,3.6l12.06,1.69v7.83h-48.67v-7.83l9.52-1.69c2.54-.56,4.44-1.48,5.71-2.75,1.27-1.27,2.68-4.16,4.23-8.68l45.07-127.17h15.45l44.43,127.59c1.27,3.53,2.4,6.03,3.39,7.51.99,1.48,2.96,2.51,5.93,3.07l8.25,1.69v8.25h-50.36v-7.83l12.27-1.69c2.82-.42,4.55-1.38,5.18-2.86.63-1.48.32-3.98-.95-7.51l-10.16-29.41-3.39-10.16-24.12-72.58h-.63l-24.76,72.58-3.6,10.16Z"/>
      </g>
      <path class="cls-1" d="M1037.97,471.68H493.33L765.65,0l272.32,471.68ZM527.54,451.92h476.22L765.65,39.5l-238.11,412.42Z"/>
    </g>
  </g>
</svg>